Coordinates
version=1
nRows=26
nColumns=24
inDegrees=yes

Units are S.I. units (second, meters, Newtons, ...)
Angles are in degrees.

endheader
time	pelvis_tilt	pelvis_list	pelvis_rotation	pelvis_tx	pelvis_ty	pelvis_tz	hip_flexion_r	hip_adduction_r	hip_rotation_r	knee_angle_r	ankle_angle_r	subtalar_angle_r	mtp_angle_r	hip_flexion_l	hip_adduction_l	hip_rotation_l	knee_angle_l	ankle_angle_l	subtalar_angle_l	mtp_angle_l	lumbar_extension	lumbar_bending	lumbar_rotation
      0.95850000	      7.65399519	     -2.77547654	     -0.32602226	     -0.35312434	      1.08287666	      0.30665065	     -2.48394951	      9.27586645	     -3.16555598	     -9.35063196	      0.41840499	    -10.10685228	      3.26704600	      4.55641694	     -4.88037701	     -0.61022474	    -61.64174038	     -1.65227821	     -3.97811294	     19.00393068	     -3.78066167	      6.91782697	     -0.06976733
      0.96266667	      7.68878659	     -2.69566189	     -0.51791917	     -0.34830431	      1.08351362	      0.30703505	     -2.93929502	      9.17886305	     -3.07353182	     -9.12308141	      0.50934386	    -10.03578653	      3.25125231	      5.01912245	     -4.69178689	     -0.47747421	    -61.34610229	     -1.01512881	     -4.55568665	     18.69273701	     -3.86957283	      6.85382356	      0.15559408
      0.96683333	      7.69111274	     -2.64783646	     -0.57957931	     -0.34348851	      1.08404445	      0.30752859	     -3.39666731	      9.15710650	     -2.88133787	     -8.78797974	      0.55133520	     -9.94193981	      3.24480887	      5.54655966	     -4.56515298	     -0.20993250	    -61.02627723	     -0.69898153	     -4.84638242	     18.54678992	     -3.89624156	      6.73124691	      0.28751528
      0.97100000	      7.70282701	     -2.58450185	     -0.70063103	     -0.33867162	      1.08458164	      0.30794679	     -3.85359783	      9.09628642	     -2.71866148	     -8.48968145	      0.60902372	     -9.88266649	      3.23601087	      6.03128263	     -4.40637497	     -0.00680165	    -60.65177665	     -0.21831316	     -5.28110380	     18.37655639	     -3.92113670	      6.61940844	      0.44328439
      0.97516667	      7.69905630	     -2.52121477	     -0.83311055	     -0.33388621	      1.08507699	      0.30836414	     -4.28715525	      9.03309279	     -2.55782696	     -8.20194579	      0.66339289	     -9.83392641	      3.22603518	      6.52179797	     -4.24836846	      0.18121051	    -60.23179127	      0.21122877	     -5.70795133	     18.19688637	     -3.96029681	      6.52397215	      0.60716922
      0.97933333	      7.70077542	     -2.45512748	     -0.96713812	     -0.32912487	      1.08554690	      0.30881066	     -4.72642720	      8.96897828	     -2.39085095	     -7.90972279	      0.71603671	     -9.79247045	      3.21480284	      6.99324957	     -4.09020762	      0.36677111	    -59.76428583	      0.60946148	     -6.13689082	     18.00768034	     -3.99136935	      6.42822846	      0.78281000
      0.98350000	      7.69288571	     -2.39750839	     -1.10290741	     -0.32438283	      1.08596897	      0.30922655	     -5.15528460	      8.91003123	     -2.21537470	     -7.61375620	      0.76749451	     -9.76191820	      3.20125301	      7.46584451	     -3.94017949	      0.54420080	    -59.25817266	      0.99916546	     -6.59142677	     17.79329613	     -4.02142008	      6.34090011	      0.97701820
      0.98766667	      7.66974733	     -2.33428468	     -1.23347291	     -0.31963433	      1.08634308	      0.30963875	     -5.56695544	      8.84471171	     -2.04556640	     -7.31799598	      0.81438020	     -9.73672375	      3.18876190	      7.94132886	     -3.78637797	      0.72411647	    -58.70282680	      1.32379900	     -6.98337011	     17.60326863	     -4.03823808	      6.25020408	      1.14970949
      0.99183333	      7.71605206	     -2.25669022	     -1.50715308	     -0.31492397	      1.08682945	      0.31018217	     -6.04625812	      8.73842833	     -1.75397984	     -7.05389802	      0.85268781	     -9.83257766	      3.03618382	      8.28690092	     -3.62862495	      0.72901451	    -58.03041959	      1.24616265	     -7.89901793	     15.57922663	     -4.19998710	      6.33468700	      2.29375288
      0.99600000	      7.65726651	     -2.20640837	     -1.61693859	     -0.31023683	      1.08706907	      0.31054100	     -6.40337336	      8.68582231	     -1.65055400	     -6.78048835	      0.90334766	     -9.79399516	      3.01199269	      8.79118471	     -3.49007823	      0.92789635	    -57.43852641	      1.91012208	     -8.10347680	     15.27103651	     -4.20805790	      6.18588677	      2.19810787
      1.00016667	      7.62134433	     -2.16485289	     -1.67173776	     -0.30552883	      1.08729590	      0.31088167	     -6.81107691	      8.65443532	     -1.47771818	     -6.44935718	      0.94296769	     -9.74425492	      3.00100150	      9.26571359	     -3.36361867	      1.17664066	    -56.78088280	      2.15278847	     -8.30998118	     15.12154120	     -4.18410856	      6.09930524	      2.21497048
      1.00433333	      7.56256995	     -2.10565955	     -1.85781785	     -0.30080367	      1.08751288	      0.31127840	     -7.16622603	      8.57459000	     -1.32474071	     -6.19427300	      1.00833257	     -9.78849357	      2.96997947	      9.71478562	     -3.22389838	      1.27154278	    -56.05297720	      2.53210470	     -8.84694709	     14.75914842	     -4.16406699	      5.99487288	      2.27515197
      1.00850000	      7.52765629	     -2.05461721	     -1.98151942	     -0.29606107	      1.08770175	      0.31162752	     -7.56820022	      8.51370407	     -1.13468272	     -5.88726361	      1.05763933	     -9.83131484	      2.92513526	     10.13651365	     -3.09163566	      1.42358755	    -55.28402433	      2.74112076	     -9.37274144	     14.25456315	     -4.13138423	      5.90658656	      2.41721482
      1.01266667	      7.47018541	     -2.03633317	     -2.01777445	     -0.29138608	      1.08777648	      0.31191062	     -7.94900746	      8.50669032	     -0.96861936	     -5.55791632	      1.08569885	     -9.78476197	      2.91155114	     10.60251674	     -2.99255595	      1.67621659	    -54.51803695	      2.89398670	     -9.56800886	     14.09282553	     -4.10890099	      5.87883601	      2.48105593
      1.01683333	      7.42816974	     -1.99212892	     -2.11528954	     -0.28662906	      1.08787524	      0.31221825	     -8.34315473	      8.45487776	     -0.82380294	     -5.25054369	      1.14134014	     -9.79100971	      2.89274334	     11.00867271	     -2.87033541	      1.84143427	    -53.68210119	      3.13886194	     -9.95199286	     13.88639198	     -4.05334375	      5.80109801	      2.57699160
      1.02100000	      7.36799357	     -1.96481783	     -2.21124393	     -0.28191843	      1.08790623	      0.31248555	     -8.71159024	      8.41761785	     -0.66180667	     -4.95060281	      1.19604593	     -9.80144193	      2.87174050	     11.42802293	     -2.76656601	      2.00912651	    -52.81394662	      3.32128971	    -10.36778521	     13.66246414	     -4.01628079	      5.75179174	      2.68296460
      1.02516667	      7.28925327	     -1.93650831	     -2.42388628	     -0.27725299	      1.08790366	      0.31285628	     -9.03273586	      8.35636659	     -0.48091545	     -4.71914742	      1.25778624	     -9.91452563	      2.80575952	     11.83079883	     -2.68338390	      2.03100540	    -51.87746494	      3.33746606	    -11.17356599	     13.01186605	     -4.05115916	      5.70644062	      2.93891711
      1.02933333	      7.24133984	     -1.93068230	     -2.42726336	     -0.27253745	      1.08783257	      0.31303560	     -9.42878888	      8.35894693	     -0.35958806	     -4.38270314	      1.28744196	     -9.87170191	      2.78974620	     12.23041680	     -2.59887169	      2.28588970	    -50.96016631	      3.43773561	    -11.29216167	     12.84841659	     -3.99121958	      5.72862318	      3.00017116
      1.03350000	      7.19534047	     -1.91176144	     -2.48912382	     -0.26779090	      1.08775814	      0.31324935	     -9.81805273	      8.33277058	     -0.24743550	     -4.07118082	      1.34284729	     -9.86961645	      2.76979026	     12.59313092	     -2.50793430	      2.46256671	    -49.98263095	      3.59651102	    -11.59428146	     12.65413947	     -3.92994875	      5.69004328	      3.07845865
      1.03766667	      7.13887231	     -1.90411728	     -2.56330485	     -0.26305244	      1.08762019	      0.31346674	    -10.19373835	      8.31471910	     -0.11456511	     -3.77118478	      1.40402422	     -9.87879313	      2.74423244	     12.95350961	     -2.43750076	      2.61332603	    -48.97571431	      3.69464102	    -11.98589817	     12.41220634	     -3.87730859	      5.66364656	      3.17203190
      1.04183333	      7.07724155	     -1.89872809	     -2.62889059	     -0.25831982	      1.08743815	      0.31366131	    -10.56207329	      8.29952575	      0.00307036	     -3.47009896	      1.45674800	     -9.89062536	      2.71710174	     13.30755722	     -2.36826500	      2.76148132	    -47.93073581	      3.73484031	    -12.35539112	     12.16344906	     -3.83773561	      5.65941641	      3.26246005
      1.04600000	      6.96637660	     -1.92555713	     -2.71141576	     -0.25370243	      1.08712394	      0.31382397	    -10.83966570	      8.31533022	      0.00754249	     -3.23694193	      1.48993107	     -9.89486350	      2.71044559	     13.71831923	     -2.34435247	      2.88600898	    -46.88691716	      3.80439074	    -12.44850393	     12.10316649	     -3.93034360	      5.72669421	      3.26677366
      1.05016667	      6.91984704	     -1.90725487	     -2.83066797	     -0.24886230	      1.08691942	      0.31407293	    -11.23664928	      8.27024136	      0.21500196	     -2.94006843	      1.58064904	     -9.99460812	      2.64289278	     13.99925467	     -2.27684469	      2.95410256	    -45.73389003	      3.67564855	    -13.34221548	     11.52161606	     -3.81054223	      5.59189339	      3.48149676
      1.05433333	      6.86955106	     -1.94838205	     -2.81846166	     -0.24422113	      1.08657077	      0.31413078	    -11.61484894	      8.31480533	      0.30153024	     -2.63343814	      1.60038314	     -9.95393643	      2.62479430	     14.32762687	     -2.25371623	      3.17211817	    -44.63007046	      3.70267464	    -13.40681632	     11.36366006	     -3.75593707	      5.72375782	      3.51412331
      1.05850000	      6.75527843	     -1.98441993	     -2.86160932	     -0.23952280	      1.08611991	      0.31426389	    -11.90235121	      8.34864965	      0.29666121	     -2.37566557	      1.63590565	     -9.95216475	      2.61800184	     14.70339823	     -2.24588571	      3.28186720	    -43.50252747	      3.77620164	    -13.46408781	     11.30520626	     -3.81701740	      5.79883376	      3.51490775
      1.06266667	      6.76249191	     -2.00554570	     -2.94181871	     -0.23478841	      1.08583016	      0.31443573	    -12.36502753	      8.34504940	      0.58021692	     -2.04901226	      1.69017298	    -10.06078949	      2.46058340	     14.90276429	     -2.22481142	      3.34410279	    -42.26614504	      3.38677868	    -14.36253410	     10.04188711	     -3.77612805	      5.83858414	      3.76232166
